<svg width="16" height="19" viewBox="0 0 16 19" fill="none" xmlns="http://www.w3.org/2000/svg">
<path d="M3 5C3 2.23858 5.23858 0 8 0C10.7614 0 13 2.23858 13 5C13 7.76142 10.7614 10 8 10C5.23858 10 3 7.76142 3 5Z" fill="black"/>
<path d="M2.34315 13.3431C0.842855 14.8434 0 16.8783 0 19H2C4.82594 19 2 19 4.5 19C6.5 19 6.4087 19 8 19C9.5913 19 8.5 19 11.5 19C13 19 11.5 19 14 19H16C16 16.8783 15.1571 14.8434 13.6569 13.3431C12.1566 11.8429 10.1217 11 8 11C5.87827 11 3.84344 11.8429 2.34315 13.3431Z" fill="black"/>
</svg>
