<svg width="60" height="60" viewBox="0 0 60 60" fill="none" xmlns="http://www.w3.org/2000/svg">
<path d="M56.5145 32.9962C56.5145 44.8822 44.8381 54.9063 29.9093 54.9063C14.9805 54.9063 3.30411 44.8822 3.30411 32.9962C3.30411 21.1101 14.9805 11.086 29.9093 11.086C44.8381 11.086 56.5145 21.1101 56.5145 32.9962Z" stroke="#4060A0" stroke-width="2.60835"/>
<ellipse cx="2.61344" cy="3.96127" rx="2.61344" ry="3.96127" transform="matrix(0.970531 0.240975 -0.31405 0.949406 21.1873 21.1272)" fill="#4060A0"/>
<path d="M19.152 12.5032L15.6752 8.33109L13.9985 3.78263C13.1256 2.76831 9.32209 4.82771 11.0396 7.40396" stroke="#4060A0" stroke-width="2.60835" stroke-linecap="round" stroke-linejoin="round"/>
<path d="M36.9518 13.9551L30.1701 3.00003" stroke="#4060A0" stroke-width="2.60835" stroke-linecap="round" stroke-linejoin="round"/>
<path d="M39.4837 39.1932C39.2175 38.9368 38.9158 38.6692 38.5967 38.3846L38.5925 38.3845C37.4688 37.3862 36.1953 36.2565 35.6626 34.9389C35.4871 34.5192 35.4024 34.0665 35.4143 33.611C35.4357 32.9861 35.7057 32.3962 36.1632 31.9745C36.6207 31.5528 37.2271 31.335 37.8453 31.3702C38.349 31.3893 38.8365 31.5542 39.2498 31.8452C39.4314 31.9738 39.5944 32.1273 39.734 32.3014C39.8866 32.1386 40.0603 31.9974 40.2503 31.8815C40.6834 31.6212 41.1815 31.4921 41.6851 31.5096C42.3043 31.5193 42.8933 31.7806 43.319 32.2343C43.7447 32.6881 43.9712 33.296 43.9472 33.9208C43.9263 34.3767 43.809 34.8229 43.6032 35.2294C42.9764 36.5048 41.6247 37.5388 40.4317 38.4512L40.4274 38.4545C40.0881 38.7135 39.7682 38.9585 39.484 39.1966L39.4837 39.1932Z" fill="#E0E6F0"/>
<path d="M12.3615 37.4323C12.0952 37.1759 11.7935 36.9083 11.4745 36.6237L11.4702 36.6236C10.3466 35.6253 9.07308 34.4956 8.54034 33.178C8.36484 32.7583 8.28019 32.3056 8.29207 31.8501C8.31348 31.2252 8.58343 30.6353 9.04092 30.2136C9.4984 29.7919 10.1048 29.5741 10.7231 29.6093C11.2267 29.6284 11.7143 29.7932 12.1276 30.0843C12.3091 30.2129 12.4721 30.3664 12.6117 30.5405C12.7643 30.3777 12.938 30.2365 13.1281 30.1206C13.5612 29.8602 14.0593 29.7312 14.5629 29.7487C15.1821 29.7584 15.7711 30.0197 16.1968 30.4734C16.6225 30.9272 16.8489 31.5351 16.825 32.1599C16.8041 32.6158 16.6868 33.062 16.481 33.4685C15.8541 34.7439 14.5025 35.7779 13.3095 36.6903L13.3051 36.6936C12.9659 36.9526 12.646 37.1976 12.3618 37.4357L12.3615 37.4323Z" fill="#E0E6F0"/>
<path d="M24.1782 26.1957C23.5287 28.1594 22.3723 29.7622 21.0665 30.7757C19.7588 31.7907 18.3642 32.176 17.152 31.875C15.9399 31.5741 14.9925 30.6073 14.5039 29.1463C14.0159 27.6873 14.0149 25.7972 14.6645 23.8336C15.314 21.8699 16.4704 20.2671 17.7762 19.2536C19.0839 18.2386 20.4785 17.8533 21.6907 18.1543C22.9029 18.4552 23.8502 19.422 24.3388 20.883C24.8268 22.342 24.8278 24.2321 24.1782 26.1957Z" stroke="#4060A0" stroke-width="1.56501"/>
<path d="M35.1334 27.5515C34.4838 29.5151 33.3275 31.1179 32.0216 32.1315C30.7139 33.1465 29.3194 33.5318 28.1072 33.2308C26.895 32.9298 25.9477 31.963 25.459 30.5021C24.971 29.0431 24.9701 27.153 25.6196 25.1893C26.2692 23.2257 27.4255 21.6229 28.7314 20.6093C30.039 19.5944 31.4336 19.2091 32.6458 19.51C33.858 19.811 34.8053 20.7778 35.294 22.2388C35.782 23.6977 35.7829 25.5879 35.1334 27.5515Z" stroke="#4060A0" stroke-width="1.56501"/>
<ellipse cx="2.61344" cy="3.96127" rx="2.61344" ry="3.96127" transform="matrix(0.970531 0.240975 -0.31405 0.949406 32.1365 22.8235)" fill="#4060A0"/>
<path d="M20.2413 36.7661L23.7344 40.6472L27.2274 36.7661" stroke="#4060A0" stroke-width="2.08806" stroke-linecap="round" stroke-linejoin="round"/>
</svg>
