<svg width="15" height="18" viewBox="0 0 15 18" fill="none" xmlns="http://www.w3.org/2000/svg">
<path d="M7.5 17.25C8.4625 17.25 9.25 16.4625 9.25 15.5H5.75C5.75 16.4625 6.5375 17.25 7.5 17.25ZM12.75 12V7.625C12.75 4.93875 11.3238 2.69 8.8125 2.095V1.5C8.8125 0.77375 8.22625 0.1875 7.5 0.1875C6.77375 0.1875 6.1875 0.77375 6.1875 1.5V2.095C3.685 2.69 2.25 4.93 2.25 7.625V12L0.5 13.75V14.625H14.5V13.75L12.75 12ZM11 12.875H4V7.625C4 5.455 5.32125 3.6875 7.5 3.6875C9.67875 3.6875 11 5.455 11 7.625V12.875Z" fill="#4060A0"/>
</svg>
