<svg width="60" height="60" viewBox="0 0 60 60" fill="none" xmlns="http://www.w3.org/2000/svg">
<circle cx="39.8212" cy="34.5611" r="4.95587" fill="#E0E6F0"/>
<circle cx="12.6943" cy="34.5611" r="4.95587" fill="#E0E6F0"/>
<path d="M56.5146 32.9961C56.5146 44.8822 44.8382 54.9063 29.9094 54.9063C14.9806 54.9063 3.30424 44.8822 3.30424 32.9961C3.30424 21.1101 14.9806 11.086 29.9094 11.086C44.8382 11.086 56.5146 21.1101 56.5146 32.9961Z" stroke="#4060A0" stroke-width="2.60835"/>
<path d="M24.1784 26.1957C23.5289 28.1594 22.3725 29.7621 21.0667 30.7757C19.759 31.7907 18.3644 32.176 17.1522 31.875C15.94 31.574 14.9927 30.6072 14.504 29.1463C14.0161 27.6873 14.0151 25.7972 14.6647 23.8335C15.3142 21.8699 16.4706 20.2671 17.7764 19.2535C19.0841 18.2386 20.4787 17.8533 21.6909 18.1542C22.903 18.4552 23.8504 19.422 24.339 20.883C24.827 22.3419 24.8279 24.2321 24.1784 26.1957Z" stroke="#4060A0" stroke-width="1.56501"/>
<ellipse cx="2.61344" cy="3.96127" rx="2.61344" ry="3.96127" transform="matrix(0.970531 0.240975 -0.31405 0.949406 21.1874 21.1272)" fill="#4060A0"/>
<path d="M35.1334 27.5517C34.4839 29.5153 33.3275 31.1181 32.0217 32.1317C30.714 33.1466 29.3194 33.5319 28.1072 33.231C26.8951 32.93 25.9477 31.9632 25.4591 30.5022C24.9711 29.0432 24.9701 27.1531 25.6197 25.1895C26.2692 23.2258 27.4256 21.6231 28.7314 20.6095C30.0391 19.5945 31.4337 19.2092 32.6459 19.5102C33.8581 19.8112 34.8054 20.7779 35.294 22.2389C35.782 23.6979 35.783 25.588 35.1334 27.5517Z" stroke="#4060A0" stroke-width="1.56501"/>
<ellipse cx="2.61344" cy="3.96127" rx="2.61344" ry="3.96127" transform="matrix(0.970531 0.240975 -0.31405 0.949406 32.1367 22.8235)" fill="#4060A0"/>
<path d="M19.152 12.5032L15.6752 8.33109L13.9985 3.78263C13.1256 2.76831 9.32209 4.82771 11.0396 7.40396" stroke="#4060A0" stroke-width="2.60835" stroke-linecap="round" stroke-linejoin="round"/>
<path d="M36.952 13.9551L30.1703 3.00004" stroke="#4060A0" stroke-width="2.60835" stroke-linecap="round" stroke-linejoin="round"/>
<path d="M16.7485 36.7661C18.4303 37.1542 22.1045 37.3094 23.3464 34.8255C23.7346 36.7661 25.5199 40.2591 29.5563 38.7067" stroke="#4060A0" stroke-width="2.08806" stroke-linecap="round" stroke-linejoin="round"/>
</svg>
