<svg width="148" height="148" viewBox="0 0 148 148" fill="none" xmlns="http://www.w3.org/2000/svg">
<g clip-path="url(#clip0_1089_8415)">
<rect width="148" height="148" rx="12" fill="#ADD35C"/>
<circle cx="115" cy="114" r="50" fill="white"/>
<circle cx="123.724" cy="116.659" r="6.38452" fill="#E6F2CE"/>
<circle cx="88.7771" cy="116.659" r="6.38452" fill="#E6F2CE"/>
<path d="M111.963 120.019C112.756 120.35 113.94 120.423 115.659 120.426M118.684 120.019C117.003 120.426 116.853 120.428 115.659 120.426M99.8661 119.683C100.09 121.588 101.748 125.329 106.587 125.06C111.425 124.791 114.651 121.858 115.659 120.426" stroke="#ADD35C" stroke-width="2.68822" stroke-linecap="round" stroke-linejoin="round"/>
<path d="M145.23 114.643C145.23 129.956 130.187 142.869 110.955 142.869C91.7225 142.869 76.6801 129.956 76.6801 114.643C76.6801 99.3306 91.7225 86.4168 110.955 86.4168C130.187 86.4168 145.23 99.3306 145.23 114.643Z" stroke="#ADD35C" stroke-width="3.36028"/>
<path d="M103.572 105.882C102.735 108.412 101.245 110.477 99.5629 111.783C97.8783 113.09 96.0817 113.587 94.5201 113.199C92.9585 112.811 91.738 111.566 91.1085 109.684C90.4798 107.804 90.4786 105.369 91.3154 102.839C92.1522 100.31 93.6419 98.2447 95.3242 96.939C97.0089 95.6314 98.8055 95.135 100.367 95.5228C101.929 95.9105 103.149 97.156 103.779 99.0382C104.407 100.918 104.409 103.353 103.572 105.882Z" stroke="#ADD35C" stroke-width="2.01617"/>
<ellipse cx="3.36684" cy="5.10321" rx="3.36684" ry="5.10321" transform="matrix(0.970531 0.240975 -0.31405 0.949406 99.7185 99.3526)" fill="#ADD35C"/>
<path d="M117.685 107.629C116.848 110.159 115.358 112.224 113.676 113.53C111.991 114.837 110.195 115.333 108.633 114.946C107.072 114.558 105.851 113.312 105.222 111.43C104.593 109.551 104.592 107.116 105.429 104.586C106.265 102.056 107.755 99.9915 109.437 98.6858C111.122 97.3782 112.919 96.8818 114.48 97.2696C116.042 97.6573 117.262 98.9028 117.892 100.785C118.52 102.665 118.522 105.1 117.685 107.629Z" stroke="#ADD35C" stroke-width="2.01617"/>
<ellipse cx="3.36684" cy="5.10321" rx="3.36684" ry="5.10321" transform="matrix(0.970531 0.240975 -0.31405 0.949406 113.824 101.538)" fill="#ADD35C"/>
<path d="M97.0965 88.2426L92.6175 82.8678L90.4573 77.0081C89.3329 75.7014 84.4328 78.3545 86.6455 81.6734" stroke="#ADD35C" stroke-width="3.36028" stroke-linecap="round" stroke-linejoin="round"/>
<path d="M120.028 90.1132L111.291 76" stroke="#ADD35C" stroke-width="3.36028" stroke-linecap="round" stroke-linejoin="round"/>
<path d="M110 95.5L117 94" stroke="#ADD35C" stroke-width="2.02" stroke-linecap="round" stroke-linejoin="round"/>
<path d="M12.48 25.18V13.4H8.54V11.46H18.84V13.4H14.94V25.18H12.48ZM26.5058 25.4C22.8058 25.4 20.3458 23.08 20.3458 18.54V18.1C20.3458 13.68 22.8858 11.24 26.6258 11.24C30.2858 11.24 32.7858 13.52 32.7858 18.1V18.54C32.7858 22.98 30.2258 25.4 26.5058 25.4ZM26.5858 23.5C28.9858 23.5 30.1658 21.6 30.1658 18.8V18.12C30.1658 15.04 29.1658 13.18 26.5058 13.16C24.1258 13.16 22.9658 15.04 22.9658 17.82V18.52C22.9658 21.62 23.9658 23.5 26.5858 23.5ZM35.3231 25.18V11.46H40.1231C43.3431 11.46 44.9631 12.96 44.9631 15.68C44.9631 18.54 43.1431 20.04 40.2831 20.04H37.7831V25.18H35.3231ZM37.7831 18.2H39.8231C41.6831 18.2 42.3831 17.42 42.3831 15.82C42.3831 14.02 41.6831 13.36 39.8631 13.36H37.7831V18.2ZM55.5911 25.38C53.9511 25.38 52.3511 24.92 51.5711 24.42L51.9711 22.64C52.6711 23.08 54.1511 23.42 55.1711 23.42C57.0111 23.42 58.0911 22.66 58.0911 21.12C58.0911 19.66 56.9911 19.06 55.2511 19.04L53.8311 19V17.22L55.0911 17.2C56.6711 17.16 57.7311 16.44 57.7311 15.16C57.7311 13.78 56.7911 13.28 55.2911 13.28C54.2711 13.28 53.1911 13.62 52.3711 14L52.0911 12.18C52.9311 11.7 54.5911 11.32 55.9311 11.32C58.4711 11.32 60.1911 12.52 60.1911 14.72C60.1911 16.36 59.2311 17.4 57.7311 17.92C59.4511 18.26 60.6511 19.24 60.6511 21.28C60.6511 23.8 58.7111 25.38 55.5911 25.38Z" fill="white"/>
<g clip-path="url(#clip1_1089_8415)">
<path d="M26.2902 106.367L55.0477 100.376L54.2489 96.5416L25.5144 102.528C24.6239 102.69 23.4963 102.559 23.1748 101.015C22.8533 99.4719 23.8346 98.9014 24.7155 98.6938L53.4501 92.7073L47.8582 65.867C47.6463 64.85 47.0391 63.9589 46.1702 63.3896C45.3013 62.8204 44.2419 62.6196 43.225 62.8315L18.3018 68.0239C15.9897 68.5056 12.8694 70.754 13.7486 74.9737L19.3405 101.814C20.2196 106.034 23.9781 106.849 26.2902 106.367ZM24.1332 76.8109L29.8847 75.6127L29.0859 71.7783L32.9202 70.9795L33.7191 74.8138L39.4706 73.6156L40.2694 77.4499L34.5179 78.6482L36.9144 90.1512L33.0801 90.95L30.6836 79.447L24.9321 80.6453L24.1332 76.8109Z" fill="white"/>
</g>
</g>
<defs>
<clipPath id="clip0_1089_8415">
<rect width="148" height="148" rx="12" fill="white"/>
</clipPath>
<clipPath id="clip1_1089_8415">
<rect width="47" height="47" fill="white" transform="translate(6 66.5861) rotate(-11.7686)"/>
</clipPath>
</defs>
</svg>
