<svg width="60" height="60" viewBox="0 0 60 60" fill="none" xmlns="http://www.w3.org/2000/svg">
<circle cx="39.8209" cy="34.5611" r="4.95587" fill="#E0E6F0"/>
<circle cx="12.694" cy="34.5611" r="4.95587" fill="#E0E6F0"/>
<path d="M33.6491 40.8132C33.4085 39.3445 31.9917 36.5018 28.2489 36.8801C24.5062 37.2585 22.1077 39.6459 21.3764 40.7924" stroke="#4060A0" stroke-width="2.08668" stroke-linecap="round" stroke-linejoin="round"/>
<path d="M56.5145 32.9961C56.5145 44.8822 44.8381 54.9063 29.9093 54.9063C14.9805 54.9063 3.30411 44.8822 3.30411 32.9961C3.30411 21.1101 14.9805 11.086 29.9093 11.086C44.8381 11.086 56.5145 21.1101 56.5145 32.9961Z" stroke="#4060A0" stroke-width="2.60835"/>
<path d="M24.1782 26.1957C23.5286 28.1594 22.3723 29.7621 21.0664 30.7757C19.7587 31.7907 18.3642 32.176 17.152 31.875C15.9398 31.574 14.9925 30.6072 14.5038 29.1463C14.0158 27.6873 14.0149 25.7972 14.6644 23.8335C15.314 21.8699 16.4703 20.2671 17.7762 19.2535C19.0838 18.2386 20.4784 17.8533 21.6906 18.1542C22.9028 18.4552 23.8501 19.422 24.3388 20.883C24.8268 22.3419 24.8277 24.2321 24.1782 26.1957Z" stroke="#4060A0" stroke-width="1.56501"/>
<ellipse cx="2.61344" cy="3.96127" rx="2.61344" ry="3.96127" transform="matrix(0.970531 0.240975 -0.31405 0.949406 21.1871 21.1272)" fill="#4060A0"/>
<path d="M35.1331 27.5517C34.4836 29.5153 33.3272 31.1181 32.0214 32.1317C30.7137 33.1466 29.3191 33.5319 28.1069 33.231C26.8947 32.93 25.9474 31.9632 25.4588 30.5022C24.9708 29.0432 24.9698 27.1531 25.6194 25.1895C26.2689 23.2258 27.4253 21.6231 28.7311 20.6095C30.0388 19.5945 31.4334 19.2092 32.6456 19.5102C33.8577 19.8112 34.8051 20.7779 35.2937 22.2389C35.7817 23.6979 35.7827 25.588 35.1331 27.5517Z" stroke="#4060A0" stroke-width="1.56501"/>
<ellipse cx="2.61344" cy="3.96127" rx="2.61344" ry="3.96127" transform="matrix(0.970531 0.240975 -0.31405 0.949406 32.1364 22.8235)" fill="#4060A0"/>
<path d="M19.152 12.5032L15.6752 8.33109L13.9985 3.78263C13.1256 2.76831 9.32209 4.82771 11.0396 7.40396" stroke="#4060A0" stroke-width="2.60835" stroke-linecap="round" stroke-linejoin="round"/>
<path d="M36.9518 13.9551L30.1701 3.00004" stroke="#4060A0" stroke-width="2.60835" stroke-linecap="round" stroke-linejoin="round"/>
<path d="M29.168 18.1365L34.6016 16.9722" stroke="#4060A0" stroke-width="1.56799" stroke-linecap="round" stroke-linejoin="round"/>
</svg>
