<svg width="148" height="148" viewBox="0 0 148 148" fill="none" xmlns="http://www.w3.org/2000/svg">
<rect width="148" height="148" rx="12" fill="#303030"/>
<path d="M110 95.5L117 94" stroke="#303030" stroke-width="2.02" stroke-linecap="round" stroke-linejoin="round"/>
<path d="M139.353 59.3123C139.623 57.5162 139.278 55.6816 138.373 54.1069C137.468 52.5321 136.057 51.3098 134.369 50.6387L133.458 43.0141C133.269 41.7748 132.683 40.6303 131.789 39.7519C130.894 38.8735 129.739 38.3086 128.497 38.1419L83.8846 31.4083C82.654 31.1949 81.3874 31.3925 80.2803 31.9706C79.1732 32.5488 78.2872 33.4753 77.7592 34.6072L74.6386 41.6233C72.7566 41.8069 70.9949 42.6317 69.6487 43.9595C68.3025 45.2874 67.4536 47.0375 67.2441 48.9168C66.9839 50.6111 67.2805 52.3442 68.0895 53.8555C68.8984 55.3669 70.1759 56.5749 71.7301 57.2981L70.0428 72.072C69.1727 72.0817 68.3291 72.3732 67.6387 72.9028C67.2041 73.2417 66.8419 73.6643 66.5735 74.1457C66.3051 74.6271 66.1361 75.1574 66.0763 75.7052L62.7377 106.452C62.6346 107.397 62.8653 108.348 63.3897 109.141C63.9142 109.933 64.6993 110.517 65.6092 110.792L64.2561 122.632C63.8272 126.214 64.8142 129.822 67.0068 132.687C69.1993 135.551 72.424 137.446 75.9935 137.968L104.586 142.283C108.157 142.851 111.808 141.999 114.76 139.91C117.711 137.821 119.728 134.66 120.379 131.103L122.581 119.391C123.523 119.384 124.434 119.05 125.158 118.447C125.882 117.844 126.375 117.009 126.553 116.084L132.438 85.7215C132.542 85.1804 132.537 84.6238 132.423 84.0847C132.308 83.5455 132.087 83.0348 131.772 82.5827C131.29 81.8768 130.587 81.3509 129.773 81.0874L132.521 66.4736C134.283 66.1826 135.902 65.3266 137.134 64.0348C138.367 62.743 139.146 61.0855 139.353 59.3123ZM83.0839 36.713L128.096 43.6697L128.831 49.5859L80.3466 42.2679L83.0839 36.713ZM115.099 130.144C114.701 132.329 113.459 134.271 111.642 135.55C109.825 136.829 107.578 137.342 105.386 136.979L76.7942 132.663C74.6021 132.354 72.6186 131.198 71.2704 129.442C69.9222 127.686 69.317 125.471 69.5848 123.274L70.9059 111.646L117.269 118.643L115.099 130.144ZM124.485 80.1807L75.3634 72.7666L76.9707 58.5231L127.1 66.0893L124.485 80.1807ZM130.924 61.2411L74.8008 52.7701C74.4166 52.6988 74.0515 52.548 73.7291 52.3272C73.4067 52.1064 73.134 51.8205 72.9287 51.488C72.7234 51.1555 72.5899 50.7838 72.5369 50.3966C72.4839 50.0094 72.5125 49.6155 72.6209 49.24C72.727 48.5366 73.1083 47.9041 73.6808 47.4818C74.2533 47.0595 74.9701 46.8818 75.6735 46.988L131.797 55.459C132.179 55.5347 132.541 55.6884 132.861 55.9104C133.18 56.1324 133.451 56.4179 133.656 56.7491C133.86 57.0804 133.994 57.4503 134.05 57.8357C134.105 58.2211 134.08 58.6137 133.977 58.9891C133.87 59.6925 133.489 60.325 132.917 60.7473C132.344 61.1696 131.627 61.3472 130.924 61.2411Z" fill="white"/>
<circle cx="101.817" cy="99.1163" r="2.63471" transform="rotate(8.58316 101.817 99.1163)" fill="#C1C1C1"/>
<circle cx="87.557" cy="96.964" r="2.63471" transform="rotate(8.58316 87.557 96.964)" fill="#C1C1C1"/>
<path d="M96.8112 99.7632C97.1146 99.9469 97.5929 100.049 98.2945 100.157M99.5536 100.177C98.843 100.239 98.7816 100.231 98.2945 100.157M91.8958 98.881C91.8699 99.6718 92.3159 101.3 94.3069 101.489C96.298 101.677 97.7949 100.679 98.2945 100.157" stroke="#303030" stroke-width="1.10935" stroke-linecap="round" stroke-linejoin="round"/>
<path d="M110.717 99.6182C109.774 105.866 102.84 110.21 94.9924 109.025C87.1446 107.84 81.802 101.645 82.745 95.3963C83.6881 89.148 90.6215 84.805 98.4693 85.9895C106.317 87.174 111.66 93.3699 110.717 99.6182Z" stroke="#303030" stroke-width="1.38669"/>
<path d="M94.2577 93.4777C93.7605 94.4584 93.0255 95.2092 92.2586 95.6384C91.4906 96.0682 90.7269 96.1601 90.1136 95.9057C89.5003 95.6513 89.079 95.0679 88.938 94.2612C88.7972 93.4555 88.9467 92.4618 89.444 91.4811C89.9412 90.5004 90.6763 89.7496 91.4432 89.3204C92.2111 88.8906 92.9748 88.7987 93.5881 89.0531C94.2015 89.3075 94.6227 89.8909 94.7637 90.6976C94.9045 91.5033 94.755 92.497 94.2577 93.4777Z" stroke="#303030" stroke-width="0.832015"/>
<ellipse cx="1.3894" cy="2.10595" rx="1.3894" ry="2.10595" transform="matrix(0.923697 0.383123 -0.452227 0.891903 93.0876 90.5759)" fill="#303030"/>
<path d="M99.9091 95.0597C99.4119 96.0404 98.6768 96.7913 97.9099 97.2205C97.142 97.6502 96.3783 97.7421 95.765 97.4877C95.1516 97.2333 94.7303 96.65 94.5894 95.8432C94.4486 95.0375 94.5981 94.0438 95.0953 93.0631C95.5926 92.0824 96.3276 91.3316 97.0945 90.9024C97.8625 90.4726 98.6262 90.3807 99.2395 90.6351C99.8528 90.8895 100.274 91.4729 100.415 92.2797C100.556 93.0853 100.406 94.079 99.9091 95.0597Z" stroke="#303030" stroke-width="0.832015"/>
<ellipse cx="1.3894" cy="2.10595" rx="1.3894" ry="2.10595" transform="matrix(0.923697 0.383123 -0.452227 0.891903 98.7087 92.3364)" fill="#303030"/>
<path d="M92.7017 85.881L91.2051 83.4119L90.6845 80.8878C90.3062 80.2854 88.1433 81.0662 88.8418 82.5567" stroke="#303030" stroke-width="1.38669" stroke-linecap="round" stroke-linejoin="round"/>
<path d="M101.944 88.0565L99.248 81.7596" stroke="#303030" stroke-width="1.38669" stroke-linecap="round" stroke-linejoin="round"/>
<path d="M98.0514 88.8826L101 88.7016" stroke="#EB6A98" stroke-width="0.833597" stroke-linecap="round" stroke-linejoin="round"/>
</svg>
