<svg width="105" height="20" viewBox="0 0 105 20" fill="none" xmlns="http://www.w3.org/2000/svg">
<path d="M0.183594 0.28363V18.7418H8.66475C12.7401 18.7418 15.4277 16.6909 15.4277 13.0254C15.4277 11.1054 14.0178 9.14181 12.2555 8.66181C13.5111 7.94181 14.4804 6.34909 14.4804 4.84363C14.4804 1.74545 11.8369 0.28363 8.42243 0.28363H0.183594ZM7.49722 0.872721C7.62939 3.35999 10.2729 4.62545 13.0485 4.6909C10.2729 4.75636 7.62939 5.84727 7.49722 8.48727C7.36504 5.84727 4.72156 4.75636 1.94591 4.6909C4.72156 4.62545 7.36504 3.35999 7.49722 0.872721ZM7.49722 8.72727C7.49722 11.7382 10.6033 13.4182 13.4891 13.5054C10.6033 13.5927 7.49722 15.0545 7.49722 18.2618C7.49722 15.0545 4.3691 13.5709 1.50533 13.4836C4.3691 13.4182 7.49722 11.7382 7.49722 8.72727ZM16.6715 14.8364C16.6715 15.8182 16.9799 16.7782 17.7729 17.4764C18.588 18.1745 19.9097 18.6327 22.0025 18.6327C23.3462 18.6327 24.9764 18.1964 25.8796 17.3236V18.3709H28.2146V9.77454C28.2146 6.95999 26.2761 5.36727 22.6633 5.36727C20.7248 5.36727 19.3149 5.82545 18.4338 6.54545C17.5306 7.26545 17.112 8.26909 17.112 9.33818V9.77454H19.5352V9.33818C19.5352 8.20363 20.4384 7.3309 22.6633 7.3309C24.9764 7.3309 25.7915 8.20363 25.7915 10.1236V10.3418L22.6633 10.6909C20.7468 10.9309 19.2709 11.2582 18.2355 11.8909C17.2002 12.5018 16.6715 13.44 16.6715 14.8364ZM22.0025 16.6691C19.7775 16.6691 19.0947 15.9709 19.0947 14.8364C19.0947 14.0291 19.381 13.4836 19.9758 13.2C20.5486 12.9164 21.4518 12.6982 22.6633 12.5673L25.7915 12.2182V14.4C25.7915 14.9891 25.4831 15.5127 24.8883 15.9709C24.2935 16.4509 23.3242 16.6691 22.0025 16.6691ZM33.8787 1.11272H31.3233V18.3709H33.8787V1.11272ZM35.9683 14.8364C35.9683 15.8182 36.2767 16.7782 37.0698 17.4764C37.8848 18.1745 39.2066 18.6327 41.2993 18.6327C42.6431 18.6327 44.2732 18.1964 45.1764 17.3236V18.3709H47.5115V9.77454C47.5115 6.95999 45.5729 5.36727 41.9602 5.36727C40.0216 5.36727 38.6118 5.82545 37.7306 6.54545C36.8274 7.26545 36.4089 8.26909 36.4089 9.33818V9.77454H38.8321V9.33818C38.8321 8.20363 39.7353 7.3309 41.9602 7.3309C44.2732 7.3309 45.0883 8.20363 45.0883 10.1236V10.3418L41.9602 10.6909C40.0437 10.9309 38.5677 11.2582 37.5324 11.8909C36.497 12.5018 35.9683 13.44 35.9683 14.8364ZM41.2993 16.6691C39.0744 16.6691 38.3915 15.9709 38.3915 14.8364C38.3915 14.0291 38.6779 13.4836 39.2726 13.2C39.8454 12.9164 40.7486 12.6982 41.9602 12.5673L45.0883 12.2182V14.4C45.0883 14.9891 44.7799 15.5127 44.1851 15.9709C43.5903 16.4509 42.6211 16.6691 41.2993 16.6691ZM61.6126 8.2909C61.6126 7.15636 61.0619 6.34909 60.2028 5.84727C59.3877 5.38909 58.2642 5.28 57.1848 5.47636L52.9332 6.34909V5.62909H50.5981V18.3709H53.0213V8.35636L57.0967 7.43999C58.3523 7.17818 59.1894 7.70181 59.1894 9.11999V18.3709H61.6126V8.2909ZM69.9539 19.1127C73.831 19.2654 76.5626 17.3018 76.7388 14.6836C76.871 12.6545 75.5713 11.5854 73.853 10.9745L69.4692 9.42545C68.7203 9.11999 68.3678 8.87999 68.3678 8.48727C68.3678 8.07272 69.1829 7.78909 70.1742 7.78909C71.1435 7.78909 72.2008 8.11636 72.1348 8.98908H75.8797C76.3203 6.56727 73.5446 4.66909 70.1962 4.66909C66.8698 4.66909 64.0501 6.04363 64.0501 8.79272C64.0501 10.56 65.2617 11.8254 67.2443 12.48L71.1214 13.7454C71.8043 13.9854 72.3991 14.2691 72.3991 14.7054C72.3991 15.3164 71.5179 15.84 70.064 15.7964C68.8084 15.7527 67.2884 15.0982 67.5087 14.0727H63.5434C63.191 16.8 65.6803 18.9382 69.9539 19.1127ZM83.9156 19.1127C87.7927 19.2654 90.5243 17.3018 90.7005 14.6836C90.8327 12.6545 89.533 11.5854 87.8147 10.9745L83.4309 9.42545C82.682 9.11999 82.3295 8.87999 82.3295 8.48727C82.3295 8.07272 83.1446 7.78909 84.1359 7.78909C85.1051 7.78909 86.1625 8.11636 86.0964 8.98908H89.8414C90.282 6.56727 87.5063 4.66909 84.1579 4.66909C80.8315 4.66909 78.0118 6.04363 78.0118 8.79272C78.0118 10.56 79.2234 11.8254 81.206 12.48L85.0831 13.7454C85.766 13.9854 86.3608 14.2691 86.3608 14.7054C86.3608 15.3164 85.4796 15.84 84.0257 15.7964C82.7701 15.7527 81.2501 15.0982 81.4704 14.0727H77.5051C77.1527 16.8 79.642 18.9382 83.9156 19.1127ZM100.455 18.1091V18.7418H104.773V4.97454H100.455V14.7491L98.6045 15.2291C97.0184 15.6436 96.1813 14.9673 96.1813 13.2218V4.97454H91.8636V13.6582C91.8636 17.6727 94.0665 19.3309 97.9436 18.5891L100.455 18.1091Z" fill="#4060A0"/>
</svg>
