<svg width="24" height="24" viewBox="0 0 24 24" fill="none" xmlns="http://www.w3.org/2000/svg">
<g id="fluent:radio-button-24-regular">
<path id="Vector" d="M12 22.002C17.524 22.002 22.002 17.524 22.002 12.001C22.002 6.47702 17.524 1.99902 12 1.99902C6.476 1.99902 1.998 6.47702 1.998 12.001C1.998 17.524 6.476 22.002 12 22.002ZM12 20.502C10.8727 20.5193 9.75314 20.3122 8.7066 19.8928C7.66006 19.4733 6.7074 18.8499 5.90406 18.0588C5.10073 17.2677 4.46277 16.3247 4.02731 15.2847C3.59186 14.2447 3.36761 13.1285 3.36761 12.001C3.36761 10.8736 3.59186 9.75734 4.02731 8.71735C4.46277 7.67737 5.10073 6.73438 5.90406 5.94327C6.7074 5.15217 7.66006 4.52875 8.7066 4.10929C9.75314 3.68984 10.8727 3.48273 12 3.50002C14.2388 3.5243 16.3776 4.43069 17.9521 6.02239C19.5267 7.61409 20.4098 9.76262 20.4098 12.0015C20.4098 14.2404 19.5267 16.389 17.9521 17.9807C16.3776 19.5724 14.2388 20.4777 12 20.502Z" fill="#D8D8D8"/>
</g>
</svg>
