<svg width="375" height="206" viewBox="0 0 375 206" fill="none" xmlns="http://www.w3.org/2000/svg">
<rect width="375" height="206" fill="#4060A0"/>
<path d="M25.944 122.016V105.552H31.704C35.496 105.552 37.128 107.088 37.128 109.704C37.128 111.432 36.408 112.68 34.44 113.304V113.376C36.504 113.76 37.848 114.912 37.848 117.312C37.848 120.048 36 122.016 32.112 122.016H25.944ZM28.872 119.808H31.704C33.696 119.808 34.752 118.944 34.752 117.144C34.752 115.248 33.624 114.528 31.536 114.528H28.872V119.808ZM28.872 112.56H31.176C32.904 112.56 34.2 111.984 34.2 110.112C34.2 108.336 33.192 107.736 31.296 107.736H28.872V112.56ZM43.6343 122.232C41.4023 122.232 39.8423 121.104 39.8423 118.728C39.8423 116.448 41.3543 115.392 43.8023 115.032L46.7063 114.696V113.76C46.7063 112.08 45.9622 111.696 43.8743 111.696C42.6743 111.696 41.6183 111.864 40.8743 112.032V110.136C42.0263 109.68 43.3463 109.464 44.9543 109.464C47.8103 109.464 49.4663 110.568 49.4663 113.136V122.016H47.1863L46.9703 121.008H46.8263C46.2263 121.704 45.2422 122.232 43.6343 122.232ZM44.4743 120.288C45.3623 120.288 46.2503 119.976 46.7063 119.544V116.496L44.4263 116.736C43.2023 116.832 42.5543 117.336 42.5543 118.584C42.5543 119.76 43.3463 120.288 44.4743 120.288ZM52.7269 122.016V104.472H55.5109V122.016H52.7269ZM61.9389 122.232C59.7069 122.232 58.1469 121.104 58.1469 118.728C58.1469 116.448 59.6589 115.392 62.1069 115.032L65.0109 114.696V113.76C65.0109 112.08 64.2669 111.696 62.1789 111.696C60.9789 111.696 59.9229 111.864 59.1789 112.032V110.136C60.3309 109.68 61.6509 109.464 63.2589 109.464C66.1149 109.464 67.7709 110.568 67.7709 113.136V122.016H65.4909L65.2749 121.008H65.1309C64.5309 121.704 63.5469 122.232 61.9389 122.232ZM62.7789 120.288C63.6669 120.288 64.5549 119.976 65.0109 119.544V116.496L62.7309 116.736C61.5069 116.832 60.8589 117.336 60.8589 118.584C60.8589 119.76 61.6509 120.288 62.7789 120.288ZM70.9836 122.016V109.656H73.6476V110.76H73.7436C74.7996 109.992 76.3116 109.44 77.7996 109.44C80.1756 109.44 81.3996 110.4 81.3996 112.848V122.016H78.6156V113.496C78.6156 112.248 78.2076 111.744 76.5276 111.744C75.5676 111.744 74.4876 112.056 73.7436 112.416V122.016H70.9836ZM88.8248 122.304C86.6648 122.304 85.0328 121.848 83.9048 121.248V118.92C85.2248 119.496 86.7848 119.928 88.5848 119.928C90.7928 119.928 91.7288 119.016 91.7288 117.528C91.7288 116.16 91.1288 115.632 89.3288 115.08L87.7688 114.648C85.4408 114 84.0248 112.752 84.0248 109.968C84.0248 107.184 85.8248 105.288 89.5448 105.288C91.7048 105.288 92.8808 105.696 93.7928 106.176V108.48C92.7608 108.048 91.4168 107.664 89.5928 107.664C87.8648 107.664 86.9048 108.384 86.9048 109.704C86.9048 111 87.3848 111.552 89.0168 112.008L90.5528 112.488C93.1448 113.232 94.7048 114.312 94.7048 117.24C94.7048 120.36 92.8088 122.304 88.8248 122.304ZM101.598 122.304C99.4382 122.304 97.8062 121.848 96.6782 121.248V118.92C97.9982 119.496 99.5582 119.928 101.358 119.928C103.566 119.928 104.502 119.016 104.502 117.528C104.502 116.16 103.902 115.632 102.102 115.08L100.542 114.648C98.2142 114 96.7982 112.752 96.7982 109.968C96.7982 107.184 98.5982 105.288 102.318 105.288C104.478 105.288 105.654 105.696 106.566 106.176V108.48C105.534 108.048 104.19 107.664 102.366 107.664C100.638 107.664 99.6782 108.384 99.6782 109.704C99.6782 111 100.158 111.552 101.79 112.008L103.326 112.488C105.918 113.232 107.478 114.312 107.478 117.24C107.478 120.36 105.582 122.304 101.598 122.304ZM116.796 122.304C112.62 122.304 110.316 120.312 110.316 116.256V105.552H113.316V116.064C113.316 119.064 114.54 120.072 116.916 120.072C119.244 120.072 120.372 119.088 120.372 116.064V105.552H123.012V116.16C123.012 120.36 120.996 122.304 116.796 122.304ZM35.256 152.936L33.672 154.952C32.28 154.064 30.48 151.88 29.952 149.984C29.448 151.976 27.624 154.448 25.896 155.432L24.192 153.536C27.24 151.52 28.608 148.472 28.608 144.248V143.216H25.008V140.984H34.656V143.216H31.32V144.2C31.32 148.376 32.712 151.424 35.256 152.936ZM38.64 158.912H36.024V148.184H33.24V145.88H36.024V138.92H38.64V158.912ZM42.936 159.896H40.272V138.512H42.936V159.896ZM63.6776 159.896H60.9896V149.168H59.0936V158.912H56.4536V138.896H59.0936V146.936H60.9896V138.512H63.6776V159.896ZM48.9176 152.528C51.1016 152.6 53.6696 152.408 55.1096 152.048L55.3736 154.256C53.7656 154.688 50.6216 154.832 48.1496 154.832H46.1096V141.056H54.1976V143.288C52.4456 143.288 50.6936 143.264 48.9176 143.264V152.528ZM83.7473 151.664H77.2673V155H85.5713V157.232H66.2513V155H74.4593V151.664H68.7233V144.584H80.3393V142.112H68.6033V139.88H83.1233V146.816H71.5073V149.408H83.7473V151.664ZM110.866 159.8H95.6256V154.4H107.29V153.32H95.6496V151.088H110.098V156.368H98.4336V157.52H110.866V159.8ZM111.682 144.656L110.482 146.84C107.482 146.528 104.242 145.232 102.994 143.192C101.914 145.304 98.8896 146.552 95.5056 146.864L94.3536 144.704C97.6416 144.56 100.474 143.48 101.266 141.44H95.3136V139.256H110.698V141.44H104.794C105.682 143.48 108.922 144.584 111.682 144.656ZM112.642 149.888H93.3216V147.632H112.642V149.888ZM131.775 159.896H128.967V138.512H131.775V159.896ZM125.199 140.744C125.031 147.2 122.175 152.48 115.647 156.032L113.919 153.92C118.599 151.784 121.791 147.32 122.175 143.072H115.215V140.744H125.199ZM154.173 151.304H134.853V149.048H154.173V151.304ZM151.797 146.648H137.445V139.208H140.253V144.416H151.797V146.648ZM151.941 159.32H137.325V153.008H140.109V157.088H151.941V159.32ZM181.675 145.904H178.651V151.016H175.795V138.512H178.651V143.6H181.675V145.904ZM172.579 149.552H162.451V139.712H165.235V142.616H169.747V139.664H172.579V149.552ZM169.747 147.32V144.8H165.235V147.32H169.747ZM178.891 155.576C178.891 158.192 176.203 159.896 171.547 159.896C166.939 159.896 164.227 158.192 164.227 155.576C164.227 152.888 166.939 151.232 171.547 151.232C176.203 151.232 178.891 152.888 178.891 155.576ZM171.547 153.464C168.739 153.464 167.131 154.28 167.131 155.576C167.131 156.848 168.739 157.64 171.547 157.64C174.379 157.64 176.011 156.848 176.011 155.576C176.011 154.28 174.379 153.464 171.547 153.464ZM200.377 159.632H186.289V151.184H189.145V153.248H197.569V151.16H200.377V159.632ZM197.569 157.4V155.432H189.145V157.4H197.569ZM200.353 150.056H197.569V145.496H194.521V143.12H197.569V138.512H200.353V150.056ZM193.441 149.12H183.385V139.496H186.193V142.28H190.657V139.448H193.441V149.12ZM190.657 146.864V144.44H186.193V146.864H190.657Z" fill="white"/>
<circle cx="292" cy="83" r="50" fill="white"/>
<circle cx="304.724" cy="89.6592" r="6.38452" fill="#E0E6F0"/>
<circle cx="269.777" cy="89.6592" r="6.38452" fill="#E0E6F0"/>
<path d="M292.963 93.0195C293.757 93.3501 294.94 93.4227 296.66 93.4256M299.684 93.0195C298.004 93.4256 297.853 93.4277 296.66 93.4256M280.866 92.6835C281.09 94.5876 282.748 98.3288 287.587 98.0599C292.426 97.7911 295.651 94.8584 296.66 93.4256" stroke="#4060A0" stroke-width="2.68822" stroke-linecap="round" stroke-linejoin="round"/>
<path d="M326.23 87.6432C326.23 102.956 311.187 115.869 291.955 115.869C272.722 115.869 257.68 102.956 257.68 87.6432C257.68 72.3306 272.722 59.4168 291.955 59.4168C311.187 59.4168 326.23 72.3306 326.23 87.6432Z" stroke="#4060A0" stroke-width="3.36028"/>
<path d="M284.572 78.8824C283.735 81.4121 282.245 83.477 280.563 84.7827C278.878 86.0903 277.082 86.5867 275.52 86.1989C273.958 85.8112 272.738 84.5657 272.109 82.6836C271.48 80.804 271.479 78.369 272.315 75.8393C273.152 73.3096 274.642 71.2447 276.324 69.939C278.009 68.6314 279.805 68.135 281.367 68.5228C282.929 68.9105 284.149 70.156 284.779 72.0382C285.407 73.9177 285.409 76.3527 284.572 78.8824Z" stroke="#4060A0" stroke-width="2.01617"/>
<ellipse cx="3.36684" cy="5.10321" rx="3.36684" ry="5.10321" transform="matrix(0.970531 0.240975 -0.31405 0.949406 280.719 72.3526)" fill="#4060A0"/>
<path d="M298.685 80.6292C297.848 83.1589 296.359 85.2238 294.676 86.5295C292.992 87.8371 291.195 88.3335 289.633 87.9457C288.072 87.558 286.851 86.3125 286.222 84.4304C285.593 82.5508 285.592 80.1158 286.429 77.5861C287.266 75.0564 288.755 72.9915 290.438 71.6858C292.122 70.3782 293.919 69.8818 295.48 70.2696C297.042 70.6573 298.262 71.9028 298.892 73.785C299.521 75.6645 299.522 78.0995 298.685 80.6292Z" stroke="#4060A0" stroke-width="2.01617"/>
<ellipse cx="3.36684" cy="5.10321" rx="3.36684" ry="5.10321" transform="matrix(0.970531 0.240975 -0.31405 0.949406 294.824 74.538)" fill="#4060A0"/>
<path d="M278.097 61.2426L273.618 55.8678L271.457 50.0081C270.333 48.7014 265.433 51.3545 267.646 54.6734" stroke="#4060A0" stroke-width="3.36028" stroke-linecap="round" stroke-linejoin="round"/>
<path d="M301.028 63.1132L292.291 49" stroke="#4060A0" stroke-width="3.36028" stroke-linecap="round" stroke-linejoin="round"/>
</svg>
