<svg width="335" height="186" viewBox="0 0 335 186" fill="none" xmlns="http://www.w3.org/2000/svg">
<g clip-path="url(#clip0_1089_7655)">
<rect width="335" height="186" rx="12" fill="#4060A0"/>
<path fill-rule="evenodd" clip-rule="evenodd" d="M232.859 11.263C231.325 9.579 228.675 9.579 227.141 11.263C226.123 12.3801 224.548 12.8022 223.108 12.3436C220.937 11.6524 218.642 12.9774 218.155 15.2029C217.832 16.6793 216.679 17.8324 215.203 18.1553C212.977 18.642 211.652 20.937 212.344 23.1077C212.802 24.5477 212.38 26.1229 211.263 27.1407C209.579 28.675 209.579 31.3251 211.263 32.8593C212.38 33.8771 212.802 35.4523 212.344 36.8923C211.652 39.063 212.977 41.358 215.203 41.8448C216.679 42.1677 217.832 43.3208 218.155 44.7971C218.642 47.0226 220.937 48.3477 223.108 47.6564C224.548 47.1979 226.123 47.6199 227.141 48.7371C228.675 50.4211 231.325 50.4211 232.859 48.7371C233.877 47.6199 235.452 47.1979 236.892 47.6564C239.063 48.3477 241.358 47.0226 241.845 44.7971C242.168 43.3208 243.321 42.1677 244.797 41.8448C247.023 41.358 248.348 39.063 247.656 36.8923C247.198 35.4523 247.62 33.8771 248.737 32.8593C250.421 31.3251 250.421 28.675 248.737 27.1407C247.62 26.1229 247.198 24.5477 247.656 23.1077C248.348 20.937 247.023 18.642 244.797 18.1553C243.321 17.8324 242.168 16.6793 241.845 15.2029C241.358 12.9774 239.063 11.6524 236.892 12.3436C235.452 12.8022 233.877 12.3801 232.859 11.263ZM220.375 35.7963L226.306 19.4999L233.426 22.0912C236.376 23.1651 238.191 25.2872 237.195 28.0225C236.712 29.3516 235.362 30.453 234.046 30.6937C235.414 31.6718 236.002 33.8489 235.385 35.544C234.207 38.7802 231.225 39.7456 227.704 38.4638L220.375 35.7963ZM236.007 27.4373C233.63 26.5065 231.752 24.5578 232.437 22.3203C231.523 24.4747 228.832 24.7605 226.413 23.9453C228.79 24.8761 230.724 26.6706 229.99 29.043C230.953 26.7538 233.587 26.6221 236.007 27.4373ZM233.555 35.3581C231.09 34.3734 228.945 31.9132 229.913 29.2549C228.945 31.9132 225.702 32.4126 223.207 31.5696C225.653 32.5474 227.88 34.8411 226.849 37.6728C227.88 34.8411 231.034 34.5275 233.555 35.3581Z" fill="#FFDF36"/>
<circle cx="275" cy="93" r="50" fill="white"/>
<circle cx="287.724" cy="99.6592" r="6.38452" fill="#E0E6F0"/>
<circle cx="252.777" cy="99.6592" r="6.38452" fill="#E0E6F0"/>
<path d="M275.963 103.019C276.756 103.35 277.939 103.423 279.659 103.426M282.684 103.019C281.003 103.426 280.853 103.428 279.659 103.426M263.866 102.683C264.09 104.588 265.748 108.329 270.587 108.06C275.425 107.791 278.651 104.858 279.659 103.426" stroke="#4060A0" stroke-width="2.68822" stroke-linecap="round" stroke-linejoin="round"/>
<path d="M309.23 97.6432C309.23 112.956 294.187 125.869 274.955 125.869C255.722 125.869 240.68 112.956 240.68 97.6432C240.68 82.3306 255.722 69.4168 274.955 69.4168C294.187 69.4168 309.23 82.3306 309.23 97.6432Z" stroke="#4060A0" stroke-width="3.36028"/>
<path d="M267.572 88.8824C266.735 91.4121 265.245 93.477 263.563 94.7827C261.878 96.0903 260.082 96.5867 258.52 96.1989C256.958 95.8112 255.738 94.5657 255.109 92.6836C254.48 90.804 254.479 88.369 255.315 85.8393C256.152 83.3096 257.642 81.2447 259.324 79.939C261.009 78.6314 262.805 78.135 264.367 78.5228C265.929 78.9105 267.149 80.156 267.779 82.0382C268.407 83.9177 268.409 86.3527 267.572 88.8824Z" stroke="#4060A0" stroke-width="2.01617"/>
<ellipse cx="3.36684" cy="5.10321" rx="3.36684" ry="5.10321" transform="matrix(0.970531 0.240975 -0.31405 0.949406 263.719 82.3526)" fill="#4060A0"/>
<path d="M281.685 90.6292C280.848 93.1589 279.358 95.2237 277.676 96.5295C275.991 97.837 274.195 98.3334 272.633 97.9457C271.072 97.5579 269.851 96.3125 269.222 94.4303C268.593 92.5508 268.592 90.1158 269.429 87.586C270.265 85.0563 271.755 82.9915 273.437 81.6857C275.122 80.3782 276.919 79.8818 278.48 80.2695C280.042 80.6573 281.262 81.9028 281.892 83.7849C282.52 85.6645 282.522 88.0995 281.685 90.6292Z" stroke="#4060A0" stroke-width="2.01617"/>
<ellipse cx="3.36684" cy="5.10321" rx="3.36684" ry="5.10321" transform="matrix(0.970531 0.240975 -0.31405 0.949406 277.824 84.538)" fill="#4060A0"/>
<path d="M261.096 71.2426L256.617 65.8678L254.457 60.0081C253.333 58.7014 248.433 61.3545 250.645 64.6734" stroke="#4060A0" stroke-width="3.36028" stroke-linecap="round" stroke-linejoin="round"/>
<path d="M284.028 73.1132L275.291 59" stroke="#4060A0" stroke-width="3.36028" stroke-linecap="round" stroke-linejoin="round"/>
<path d="M311.961 144.015C313.497 141.331 317.368 141.331 318.904 144.015L322.806 150.832C323.186 151.495 323.747 152.036 324.425 152.39L331.149 155.904C334.012 157.4 334.012 161.498 331.149 162.994L324.425 166.509C323.747 166.863 323.186 167.403 322.806 168.067L318.904 174.884C317.368 177.568 313.497 177.568 311.961 174.884L308.059 168.067C307.679 167.403 307.117 166.863 306.44 166.509L299.716 162.994C296.853 161.498 296.853 157.4 299.716 155.904L306.44 152.39C307.117 152.036 307.679 151.495 308.059 150.832L311.961 144.015Z" fill="#D0529E"/>
<path d="M27.552 59.208V52.512H30.336V73.896H27.552V61.56H21.792V59.208H27.552ZM25.032 68.088C22.416 68.784 18.168 69.024 15.624 69.024H13.68V54.648H16.464V66.648C19.44 66.648 22.392 66.432 24.696 65.856L25.032 68.088ZM37.2056 58.992C37.2056 60.576 38.3576 61.8 40.2776 61.8C42.2216 61.8 43.3736 60.576 43.3736 58.992C43.3736 57.48 42.2216 56.256 40.2776 56.256C38.3576 56.256 37.2056 57.48 37.2056 58.992ZM51.5336 52.512V73.896H48.7496V52.512H51.5336ZM34.3256 59.016C34.3256 56.016 36.6776 53.88 40.2776 53.88C43.9016 53.88 46.2056 56.016 46.2056 59.016C46.2056 61.992 43.9016 64.152 40.2776 64.152C36.6776 64.152 34.3256 61.992 34.3256 59.016ZM47.8616 68.424C45.8216 68.688 42.9176 68.928 40.6376 69.048C38.2616 69.144 35.7176 69.24 33.9176 69.216L33.5096 66.816C35.9816 66.816 38.0456 66.792 40.4696 66.696C43.1336 66.6 45.7256 66.408 47.6216 66.168L47.8616 68.424ZM73.2759 62.856C72.7479 63.6 72.1959 64.32 71.6919 65.04C70.0599 64.44 67.8279 62.52 66.8919 60.528C66.2439 62.712 63.9399 64.944 61.9239 65.616L60.2679 63.384C63.3879 62.232 65.4039 59.448 65.4039 56.256V53.736H68.3319V56.112C68.3319 59.376 70.7799 62.04 73.2759 62.856ZM78.2439 68.016H75.4359V59.688H71.7639V57.432H75.4359V52.512H78.2439V68.016ZM78.6999 73.32H64.1559V66.6H66.9399V71.088H78.6999V73.32ZM99.5136 65.304H96.8256V59.952H95.0016V65.088H92.3616V52.896H95.0016V57.696H96.8256V52.512H99.5136V65.304ZM84.8256 62.352C86.4096 62.4 89.6976 62.184 91.0656 61.848L91.2816 63.984C89.7456 64.368 86.6496 64.56 83.9616 64.56H82.0416V54.048H90.3936V56.28H84.8256V58.128H90.1776V60.312H84.8256V62.352ZM84.5376 66.312H99.5136V73.92H96.7056V68.544H84.5376V66.312ZM121.407 63.768H102.087V61.536H121.407V63.768ZM119.631 73.8H104.391V68.352H116.079V67.128H104.415V64.944H118.863V70.32H107.199V71.496H119.631V73.8ZM107.127 56.664C107.127 57.624 108.807 58.392 111.783 58.392C114.759 58.392 116.463 57.624 116.463 56.664C116.463 55.68 114.759 54.96 111.783 54.96C108.807 54.96 107.127 55.68 107.127 56.664ZM104.223 56.664C104.223 54.336 106.935 52.824 111.783 52.824C116.607 52.824 119.343 54.336 119.343 56.664C119.343 58.968 116.607 60.504 111.783 60.504C106.935 60.504 104.223 58.968 104.223 56.664ZM148.478 71.232H129.158V69H137.366V64.848H131.486V53.976H134.27V57.288H143.366V53.928H146.174V64.848H140.174V69H148.478V71.232ZM143.366 62.616V59.448H134.27V62.616H143.366ZM161.635 66L161.731 63.6H164.803V59.112H161.731L161.635 56.736H164.803V52.512H167.611V73.896H164.803V66H161.635ZM150.043 61.632C150.043 57.12 152.059 53.976 155.539 53.976C159.043 53.976 161.059 57.12 161.059 61.632C161.059 66.096 159.043 69.24 155.539 69.24C152.059 69.24 150.043 66.12 150.043 61.632ZM158.371 61.632C158.371 58.248 157.195 56.232 155.539 56.232C153.931 56.232 152.779 58.248 152.779 61.632C152.779 64.992 153.931 66.984 155.539 66.984C157.195 66.984 158.371 64.992 158.371 61.632ZM181.537 68.928V66.816H185.953V52.512H188.737V73.896H185.953V68.928H181.537ZM183.337 55.992H179.353C179.473 58.2 182.065 59.472 184.225 59.664L183.049 61.896C180.841 61.632 178.681 60.24 177.889 58.968C177.265 60.288 175.105 61.944 172.609 62.4L171.313 60.168C173.713 59.856 176.257 58.248 176.353 55.992H172.177V53.76H183.337V55.992ZM178.969 73.296H176.161V65.688C174.073 65.76 172.369 65.832 170.785 65.832L170.401 63.504C172.825 63.504 175.177 63.48 177.529 63.36C180.361 63.216 182.833 63.096 184.657 62.856L184.873 65.016C183.289 65.256 181.057 65.424 178.969 65.544V73.296ZM192.894 66.24L192.51 53.928H195.63L195.294 66.24H192.894ZM192.654 71.352V68.544H195.534V71.352H192.654Z" fill="white"/>
<path d="M12.3304 87.5106V120.735H27.5965C34.9322 120.735 39.7697 117.044 39.7697 110.446C39.7697 106.99 37.232 103.455 34.0598 102.591C36.32 101.295 38.0647 98.4284 38.0647 95.7186C38.0647 90.1418 33.3064 87.5106 27.1603 87.5106H12.3304ZM25.495 88.5709C25.7329 93.048 30.4911 95.3258 35.4873 95.4437C30.4911 95.5615 25.7329 97.5251 25.495 102.277C25.257 97.5251 20.4988 95.5615 15.5026 95.4437C20.4988 95.3258 25.257 93.048 25.495 88.5709ZM25.495 102.709C25.495 108.129 31.0859 111.153 36.2803 111.31C31.0859 111.467 25.495 114.098 25.495 119.871C25.495 114.098 19.8643 111.428 14.7096 111.271C19.8643 111.153 25.495 108.129 25.495 102.709ZM42.0086 113.705C42.0086 115.473 42.5637 117.201 43.9912 118.457C45.4583 119.714 47.8375 120.539 51.6044 120.539C54.0232 120.539 56.9575 119.753 58.5832 118.183V120.068H62.7863V104.594C62.7863 99.528 59.2969 96.6611 52.794 96.6611C49.3046 96.6611 46.7669 97.4858 45.1808 98.7818C43.555 100.078 42.8016 101.884 42.8016 103.809V104.594H47.1634V103.809C47.1634 101.767 48.7891 100.196 52.794 100.196C56.9575 100.196 58.4246 101.767 58.4246 105.223V105.615L52.794 106.244C49.3442 106.676 46.6875 107.265 44.8239 108.404C42.9602 109.503 42.0086 111.192 42.0086 113.705ZM51.6044 117.004C47.5995 117.004 46.3703 115.748 46.3703 113.705C46.3703 112.252 46.8858 111.271 47.9564 110.76C48.9874 110.249 50.6131 109.857 52.794 109.621L58.4246 108.993V112.92C58.4246 113.98 57.8695 114.923 56.7989 115.748C55.7282 116.612 53.9835 117.004 51.6044 117.004ZM72.9816 89.0029H68.3819V120.068H72.9816V89.0029ZM76.7429 113.705C76.7429 115.473 77.298 117.201 78.7255 118.457C80.1926 119.714 82.5718 120.539 86.3387 120.539C88.7575 120.539 91.6918 119.753 93.3175 118.183V120.068H97.5206V104.594C97.5206 99.528 94.0312 96.6611 87.5283 96.6611C84.0389 96.6611 81.5012 97.4858 79.9151 98.7818C78.2893 100.078 77.5359 101.884 77.5359 103.809V104.594H81.8977V103.809C81.8977 101.767 83.5234 100.196 87.5283 100.196C91.6918 100.196 93.1589 101.767 93.1589 105.223V105.615L87.5283 106.244C84.0786 106.676 81.4219 107.265 79.5582 108.404C77.6946 109.503 76.7429 111.192 76.7429 113.705ZM86.3387 117.004C82.3339 117.004 81.1046 115.748 81.1046 113.705C81.1046 112.252 81.6201 111.271 82.6907 110.76C83.7217 110.249 85.3474 109.857 87.5283 109.621L93.1589 108.993V112.92C93.1589 113.98 92.6038 114.923 91.5332 115.748C90.4626 116.612 88.7179 117.004 86.3387 117.004ZM122.903 101.924C122.903 99.8815 121.911 98.4284 120.365 97.5251C118.898 96.7004 116.876 96.504 114.933 96.8575L107.28 98.4284V97.1324H103.077V120.068H107.438V102.041L114.774 100.392C117.034 99.9207 118.541 100.863 118.541 103.416V120.068H122.903V101.924ZM137.917 121.403C144.896 121.678 149.813 118.143 150.13 113.431C150.368 109.778 148.028 107.854 144.935 106.754L137.045 103.966C135.696 103.416 135.062 102.984 135.062 102.277C135.062 101.531 136.529 101.02 138.313 101.02C140.058 101.02 141.961 101.609 141.843 103.18H148.583C149.376 98.8211 144.38 95.4044 138.353 95.4044C132.366 95.4044 127.29 97.8786 127.29 102.827C127.29 106.008 129.471 108.286 133.04 109.464L140.019 111.742C141.248 112.174 142.318 112.684 142.318 113.47C142.318 114.569 140.732 115.512 138.115 115.433C135.855 115.355 133.119 114.177 133.516 112.331H126.378C125.744 117.24 130.224 121.089 137.917 121.403ZM163.048 121.403C170.027 121.678 174.944 118.143 175.261 113.431C175.499 109.778 173.159 107.854 170.066 106.754L162.176 103.966C160.827 103.416 160.193 102.984 160.193 102.277C160.193 101.531 161.66 101.02 163.445 101.02C165.189 101.02 167.093 101.609 166.974 103.18H173.714C174.507 98.8211 169.511 95.4044 163.484 95.4044C157.497 95.4044 152.421 97.8786 152.421 102.827C152.421 106.008 154.602 108.286 158.171 109.464L165.15 111.742C166.379 112.174 167.449 112.684 167.449 113.47C167.449 114.569 165.863 115.512 163.246 115.433C160.986 115.355 158.25 114.177 158.647 112.331H151.509C150.875 117.24 155.355 121.089 163.048 121.403ZM192.819 119.596V120.735H200.591V95.9542H192.819V113.548L189.488 114.412C186.633 115.159 185.126 113.941 185.126 110.799V95.9542H177.355V111.585C177.355 118.811 181.32 121.796 188.299 120.46L192.819 119.596Z" fill="white"/>
</g>
<defs>
<clipPath id="clip0_1089_7655">
<rect width="335" height="186" rx="12" fill="white"/>
</clipPath>
</defs>
</svg>
