<svg width="22" height="21" viewBox="0 0 22 21" fill="none" xmlns="http://www.w3.org/2000/svg">
<path d="M11 -0.000976562C16.524 -0.000976562 21.002 4.47702 21.002 10.001C21.002 15.524 16.524 20.002 11 20.002C5.476 20.002 0.998001 15.524 0.998001 10.001C0.998001 4.47702 5.476 -0.000976562 11 -0.000976562ZM11 1.49902C9.87581 1.48683 8.76036 1.69772 7.71822 2.1195C6.67608 2.54127 5.72793 3.16554 4.92866 3.95619C4.12939 4.74684 3.49487 5.68816 3.06182 6.72566C2.62877 7.76317 2.4058 8.87627 2.4058 10.0005C2.4058 11.1248 2.62877 12.2379 3.06182 13.2754C3.49487 14.3129 4.12939 15.2542 4.92866 16.0449C5.72793 16.8355 6.67608 17.4598 7.71822 17.8816C8.76036 18.3033 9.87581 18.5142 11 18.502C13.232 18.4678 15.361 17.5571 16.9274 15.9666C18.4937 14.376 19.3716 12.2333 19.3716 10.001C19.3716 7.76874 18.4937 5.626 16.9274 4.03548C15.361 2.44496 13.232 1.53326 11 1.49902ZM10.996 3.99902C12.5868 3.99902 14.1124 4.63095 15.2372 5.7558C16.3621 6.88064 16.994 8.40625 16.994 9.99702C16.994 11.5878 16.3621 13.1134 15.2372 14.2382C14.1124 15.3631 12.5868 15.995 10.996 15.995C9.40523 15.995 7.87962 15.3631 6.75477 14.2382C5.62993 13.1134 4.998 11.5878 4.998 9.99702C4.998 8.40625 5.62993 6.88064 6.75477 5.7558C7.87962 4.63095 9.40523 3.99902 10.996 3.99902Z" fill="#4060A0"/>
</svg>
