<svg width="60" height="60" viewBox="0 0 60 60" fill="none" xmlns="http://www.w3.org/2000/svg">
<circle cx="39.8212" cy="34.5611" r="4.95587" fill="#E0E6F0"/>
<circle cx="12.6944" cy="34.5611" r="4.95587" fill="#E0E6F0"/>
<path d="M56.5146 32.9962C56.5146 44.8822 44.8383 54.9063 29.9095 54.9063C14.9806 54.9063 3.3043 44.8822 3.3043 32.9962C3.3043 21.1101 14.9806 11.086 29.9095 11.086C44.8383 11.086 56.5146 21.1101 56.5146 32.9962Z" stroke="#4060A0" stroke-width="2.60835"/>
<path d="M24.1785 26.1957C23.529 28.1594 22.3726 29.7621 21.0668 30.7757C19.7591 31.7907 18.3645 32.176 17.1523 31.875C15.9402 31.574 14.9928 30.6072 14.5042 29.1463C14.0162 27.6873 14.0152 25.7972 14.6648 23.8335C15.3143 21.8699 16.4707 20.2671 17.7765 19.2535C19.0842 18.2386 20.4788 17.8533 21.691 18.1542C22.9032 18.4552 23.8505 19.422 24.3391 20.883C24.8271 22.3419 24.8281 24.2321 24.1785 26.1957Z" stroke="#4060A0" stroke-width="1.56501"/>
<ellipse cx="2.61344" cy="3.96127" rx="2.61344" ry="3.96127" transform="matrix(0.970531 0.240975 -0.31405 0.949406 21.1874 21.1272)" fill="#4060A0"/>
<path d="M35.1335 27.5517C34.4839 29.5153 33.3276 31.1181 32.0217 32.1317C30.7141 33.1466 29.3195 33.5319 28.1073 33.231C26.8951 32.93 25.9478 31.9632 25.4591 30.5022C24.9711 29.0433 24.9702 27.1531 25.6198 25.1895C26.2693 23.2258 27.4256 21.6231 28.7315 20.6095C30.0392 19.5945 31.4337 19.2092 32.6459 19.5102C33.8581 19.8112 34.8054 20.778 35.2941 22.2389C35.7821 23.6979 35.783 25.588 35.1335 27.5517Z" stroke="#4060A0" stroke-width="1.56501"/>
<ellipse cx="2.61344" cy="3.96127" rx="2.61344" ry="3.96127" transform="matrix(0.970531 0.240975 -0.31405 0.949406 32.1368 22.8235)" fill="#4060A0"/>
<path d="M19.152 12.5032L15.6752 8.33109L13.9985 3.78263C13.1256 2.76831 9.32209 4.82771 11.0396 7.40396" stroke="#4060A0" stroke-width="2.60835" stroke-linecap="round" stroke-linejoin="round"/>
<path d="M36.952 13.9551L30.1703 3.00003" stroke="#4060A0" stroke-width="2.60835" stroke-linecap="round" stroke-linejoin="round"/>
<ellipse cx="24.1226" cy="38.7067" rx="1.94058" ry="3.88116" stroke="#4060A0" stroke-width="1.86295"/>
</svg>
