<svg width="187" height="29" viewBox="0 0 187 29" fill="none" xmlns="http://www.w3.org/2000/svg">
<rect y="15" width="187" height="11" fill="#E0E6F0"/>
<path d="M10.376 21.016V6.88H5.648V4.552H18.008V6.88H13.328V21.016H10.376ZM25.7669 21.232C21.6629 21.232 19.6469 18.904 19.6469 14.992V14.656C19.6469 10.504 22.1669 8.464 25.3109 8.464C28.9589 8.464 30.5429 10.504 30.5429 14.44V15.592H22.4789C22.6469 18.16 23.9669 19.072 26.3189 19.072C27.9029 19.072 29.0549 18.712 30.1349 18.16V20.08C29.2949 20.632 27.8549 21.232 25.7669 21.232ZM25.2629 10.504C23.9909 10.504 22.6709 11.176 22.4789 13.696H27.7349C27.7349 11.368 26.8709 10.504 25.2629 10.504ZM36.1889 21.232C33.9569 21.232 32.3969 20.104 32.3969 17.728C32.3969 15.448 33.9089 14.392 36.3569 14.032L39.2609 13.696V12.76C39.2609 11.08 38.5169 10.696 36.4289 10.696C35.2289 10.696 34.1729 10.864 33.4289 11.032V9.136C34.5809 8.68 35.9009 8.464 37.5089 8.464C40.3649 8.464 42.0209 9.568 42.0209 12.136V21.016H39.7409L39.5249 20.008H39.3809C38.7809 20.704 37.7969 21.232 36.1889 21.232ZM37.0289 19.288C37.9169 19.288 38.8049 18.976 39.2609 18.544V15.496L36.9809 15.736C35.7569 15.832 35.1089 16.336 35.1089 17.584C35.1089 18.76 35.9009 19.288 37.0289 19.288ZM45.2336 21.016V8.656H47.8976V9.76H47.9936C49.0496 9.016 50.3216 8.44 51.7616 8.44C53.1776 8.44 54.1376 8.872 54.6896 9.832H54.8336C56.1056 8.968 57.4976 8.44 58.8896 8.44C61.0736 8.44 62.2976 9.376 62.2976 11.824V21.016H59.5616V12.472C59.5616 11.248 59.0816 10.744 57.6656 10.744C56.8496 10.744 56.0336 10.984 55.0976 11.44C55.1216 11.632 55.1456 11.752 55.1456 11.992V21.016H52.4336V12.472C52.4336 11.248 51.9296 10.744 50.5376 10.744C49.6496 10.744 48.7376 11.032 47.9936 11.416V21.016H45.2336ZM71.8363 21.016V8.656H74.6203V21.016H71.8363ZM71.8363 6.616V4.096H74.6443V6.616H71.8363ZM77.6403 15.52V13.216H84.2403V15.52H77.6403ZM87.2878 21.016V4.552H93.0478C96.9118 4.552 98.8558 6.352 98.8558 9.616C98.8558 13.048 96.6718 14.848 93.2398 14.848H90.2398V21.016H87.2878ZM90.2398 12.64H92.6878C94.9198 12.64 95.7598 11.704 95.7598 9.784C95.7598 7.624 94.9198 6.832 92.7358 6.832H90.2398V12.64ZM101.585 21.016V4.552H107.105C110.897 4.552 112.841 6.16 112.841 9.376C112.841 11.68 111.713 12.904 109.865 13.624V13.744L113.945 21.016H110.729L107.057 14.368H104.537V21.016H101.585ZM104.537 12.328H106.793C108.929 12.328 109.793 11.392 109.793 9.472C109.793 7.6 108.881 6.832 106.769 6.832H104.537V12.328ZM122.996 21.28C118.556 21.28 115.604 18.496 115.604 13.048V12.52C115.604 7.216 118.652 4.288 123.14 4.288C127.532 4.288 130.532 7.024 130.532 12.52V13.048C130.532 18.376 127.46 21.28 122.996 21.28ZM123.092 19C125.972 19 127.388 16.72 127.388 13.36V12.544C127.388 8.848 126.188 6.616 122.996 6.592C120.14 6.592 118.748 8.848 118.748 12.184V13.024C118.748 16.744 119.948 19 123.092 19ZM133.577 21.016V4.552H137.729L141.737 16.96H141.809L145.817 4.552H149.945V21.016H146.993V8.224H146.897L142.769 21.016H140.345L136.241 8.224H136.169V21.016H133.577ZM152.171 21.016L158.171 4.552H161.195L167.051 21.016H164.003L162.515 16.84H156.395L154.907 21.016H152.171ZM159.395 8.056L157.091 14.632H161.771L159.467 8.056H159.395ZM168.165 21.016L173.373 12.592L168.501 4.552H171.789L175.461 10.6H175.557L178.941 4.552H181.941L177.165 12.568L182.253 21.016H178.965L175.101 14.608H175.029L171.141 21.016H168.165Z" fill="black"/>
</svg>
