<svg width="60" height="60" viewBox="0 0 60 60" fill="none" xmlns="http://www.w3.org/2000/svg">
<path d="M38.4837 36.1932C38.2175 35.9368 37.9158 35.6692 37.5967 35.3846L37.5925 35.3845C36.4688 34.3862 35.1953 33.2565 34.6626 31.9389C34.4871 31.5192 34.4024 31.0665 34.4143 30.611C34.4357 29.9861 34.7057 29.3962 35.1632 28.9745C35.6207 28.5528 36.2271 28.335 36.8453 28.3702C37.349 28.3893 37.8365 28.5541 38.2498 28.8451C38.4314 28.9738 38.5944 29.1273 38.734 29.3014C38.8866 29.1386 39.0603 28.9974 39.2503 28.8815C39.6834 28.6211 40.1815 28.492 40.6851 28.5096C41.3043 28.5193 41.8933 28.7806 42.319 29.2343C42.7447 29.6881 42.9712 30.296 42.9472 30.9208C42.9263 31.3767 42.809 31.8229 42.6032 32.2294C41.9764 33.5048 40.6247 34.5388 39.4317 35.4512L39.4273 35.4545C39.0881 35.7135 38.7682 35.9585 38.484 36.1966L38.4837 36.1932Z" fill="#E0E6F0"/>
<path d="M10.3615 34.4323C10.0952 34.1759 9.79351 33.9083 9.47447 33.6237L9.4702 33.6235C8.34658 32.6253 7.07308 31.4956 6.54034 30.178C6.36483 29.7583 6.28019 29.3056 6.29206 28.8501C6.31348 28.2252 6.58343 27.6353 7.04091 27.2136C7.4984 26.7919 8.1048 26.5741 8.72307 26.6093C9.22675 26.6284 9.71427 26.7932 10.1276 27.0842C10.3091 27.2129 10.4721 27.3664 10.6117 27.5405C10.7643 27.3777 10.938 27.2365 11.128 27.1206C11.5612 26.8602 12.0593 26.7311 12.5629 26.7487C13.1821 26.7584 13.7711 27.0196 14.1968 27.4734C14.6225 27.9272 14.8489 28.5351 14.825 29.1599C14.8041 29.6158 14.6868 30.062 14.481 30.4685C13.8541 31.7439 12.5025 32.7779 11.3095 33.6903L11.3051 33.6936C10.9659 33.9526 10.646 34.1976 10.3618 34.4357L10.3615 34.4323Z" fill="#E0E6F0"/>
<path d="M30.6917 37.1694C31.3075 37.426 32.2259 37.4823 33.5609 37.4846M35.9084 37.1694C34.6042 37.4846 34.4877 37.4862 33.5609 37.4846M21.3016 36.9086C21.4755 38.3866 22.7623 41.2906 26.5183 41.0819C30.2744 40.8733 32.7784 38.5968 33.5609 37.4846" stroke="#4060A0" stroke-width="2.08668" stroke-linecap="round" stroke-linejoin="round"/>
<path d="M56.5145 32.9962C56.5145 44.8822 44.8381 54.9063 29.9093 54.9063C14.9805 54.9063 3.30411 44.8822 3.30411 32.9962C3.30411 21.1101 14.9805 11.086 29.9093 11.086C44.8381 11.086 56.5145 21.1101 56.5145 32.9962Z" stroke="#4060A0" stroke-width="2.60835"/>
<path d="M24.1782 26.1957C23.5286 28.1594 22.3723 29.7622 21.0664 30.7757C19.7587 31.7907 18.3642 32.176 17.152 31.875C15.9398 31.574 14.9925 30.6073 14.5038 29.1463C14.0158 27.6873 14.0149 25.7972 14.6644 23.8335C15.314 21.8699 16.4703 20.2671 17.7762 19.2536C19.0838 18.2386 20.4784 17.8533 21.6906 18.1543C22.9028 18.4552 23.8501 19.422 24.3388 20.883C24.8268 22.342 24.8277 24.2321 24.1782 26.1957Z" stroke="#4060A0" stroke-width="1.56501"/>
<ellipse cx="2.61344" cy="3.96127" rx="2.61344" ry="3.96127" transform="matrix(0.970531 0.240975 -0.31405 0.949406 21.1871 21.1272)" fill="#4060A0"/>
<path d="M35.1333 27.5517C34.4838 29.5153 33.3274 31.1181 32.0215 32.1317C30.7139 33.1466 29.3193 33.5319 28.1071 33.2309C26.8949 32.93 25.9476 31.9632 25.4589 30.5022C24.971 29.0432 24.97 27.1531 25.6196 25.1895C26.2691 23.2258 27.4254 21.623 28.7313 20.6095C30.039 19.5945 31.4336 19.2092 32.6457 19.5102C33.8579 19.8112 34.8053 20.7779 35.2939 22.2389C35.7819 23.6979 35.7828 25.588 35.1333 27.5517Z" stroke="#4060A0" stroke-width="1.56501"/>
<ellipse cx="2.61344" cy="3.96127" rx="2.61344" ry="3.96127" transform="matrix(0.970531 0.240975 -0.31405 0.949406 32.1364 22.8235)" fill="#4060A0"/>
<path d="M19.1518 12.5032L15.6751 8.3311L13.9983 3.78264C13.1254 2.76832 9.3219 4.82772 11.0394 7.40397" stroke="#4060A0" stroke-width="2.60835" stroke-linecap="round" stroke-linejoin="round"/>
<path d="M36.9518 13.9551L30.1701 3.00003" stroke="#4060A0" stroke-width="2.60835" stroke-linecap="round" stroke-linejoin="round"/>
<path d="M27.6142 22.4591L34.444 24.1811" stroke="#4060A0" stroke-width="1.56799" stroke-linecap="round" stroke-linejoin="round"/>
<path d="M17 20.0664L23.8298 21.7884" stroke="#4060A0" stroke-width="1.56799" stroke-linecap="round" stroke-linejoin="round"/>
</svg>
