<svg width="148" height="148" viewBox="0 0 148 148" fill="none" xmlns="http://www.w3.org/2000/svg">
<g clip-path="url(#clip0_96_1274)">
<rect width="148" height="148" rx="12" fill="#4060A0"/>
<circle cx="115" cy="114" r="50" fill="white"/>
<circle cx="123.724" cy="116.659" r="6.38452" fill="#E0E6F0"/>
<circle cx="88.7771" cy="116.659" r="6.38452" fill="#E0E6F0"/>
<path d="M111.963 120.019C112.756 120.35 113.939 120.423 115.659 120.426M118.684 120.019C117.003 120.426 116.853 120.428 115.659 120.426M99.866 119.683C100.09 121.588 101.748 125.329 106.587 125.06C111.425 124.791 114.651 121.858 115.659 120.426" stroke="#4060A0" stroke-width="2.68822" stroke-linecap="round" stroke-linejoin="round"/>
<path d="M145.23 114.643C145.23 129.956 130.187 142.869 110.955 142.869C91.7225 142.869 76.6801 129.956 76.6801 114.643C76.6801 99.3306 91.7225 86.4168 110.955 86.4168C130.187 86.4168 145.23 99.3306 145.23 114.643Z" stroke="#4060A0" stroke-width="3.36028"/>
<path d="M103.572 105.882C102.735 108.412 101.245 110.477 99.5629 111.783C97.8783 113.09 96.0817 113.587 94.5201 113.199C92.9585 112.811 91.738 111.566 91.1085 109.684C90.4798 107.804 90.4786 105.369 91.3154 102.839C92.1522 100.31 93.6419 98.2447 95.3242 96.939C97.0089 95.6314 98.8055 95.135 100.367 95.5228C101.929 95.9105 103.149 97.156 103.779 99.0382C104.407 100.918 104.409 103.353 103.572 105.882Z" stroke="#4060A0" stroke-width="2.01617"/>
<ellipse cx="3.36684" cy="5.10321" rx="3.36684" ry="5.10321" transform="matrix(0.970531 0.240975 -0.31405 0.949406 99.7185 99.3526)" fill="#4060A0"/>
<path d="M117.685 107.629C116.848 110.159 115.358 112.224 113.676 113.529C111.991 114.837 110.195 115.333 108.633 114.946C107.071 114.558 105.851 113.312 105.222 111.43C104.593 109.551 104.592 107.116 105.428 104.586C106.265 102.056 107.755 99.9915 109.437 98.6857C111.122 97.3782 112.919 96.8818 114.48 97.2695C116.042 97.6573 117.262 98.9028 117.892 100.785C118.52 102.664 118.522 105.099 117.685 107.629Z" stroke="#4060A0" stroke-width="2.01617"/>
<ellipse cx="3.36684" cy="5.10321" rx="3.36684" ry="5.10321" transform="matrix(0.970531 0.240975 -0.31405 0.949406 113.824 101.538)" fill="#4060A0"/>
<path d="M97.0963 88.2426L92.6173 82.8678L90.4572 77.0081C89.3327 75.7014 84.4327 78.3545 86.6453 81.6734" stroke="#4060A0" stroke-width="3.36028" stroke-linecap="round" stroke-linejoin="round"/>
<path d="M120.028 90.1132L111.291 76" stroke="#4060A0" stroke-width="3.36028" stroke-linecap="round" stroke-linejoin="round"/>
<path d="M110 95.5L117 94" stroke="#4060A0" stroke-width="2.02" stroke-linecap="round" stroke-linejoin="round"/>
<path d="M12.48 25.18H14.94V13.4H18.84V11.46H8.54V13.4H12.48V25.18ZM26.5058 25.4C30.2258 25.4 32.7858 22.98 32.7858 18.54V18.1C32.7858 13.52 30.2858 11.24 26.6258 11.24C22.8858 11.24 20.3458 13.68 20.3458 18.1V18.54C20.3458 23.08 22.8058 25.4 26.5058 25.4ZM26.5858 23.5C23.9658 23.5 22.9658 21.62 22.9658 18.52V17.82C22.9658 15.04 24.1258 13.16 26.5058 13.16C29.1658 13.18 30.1658 15.04 30.1658 18.12V18.8C30.1658 21.6 28.9858 23.5 26.5858 23.5ZM35.3231 25.18H37.7831V20.04H40.2831C43.1431 20.04 44.9631 18.54 44.9631 15.68C44.9631 12.96 43.3431 11.46 40.1231 11.46H35.3231V25.18ZM37.7831 18.2V13.36H39.8631C41.6831 13.36 42.3831 14.02 42.3831 15.82C42.3831 17.42 41.6831 18.2 39.8231 18.2H37.7831ZM51.9111 25.18H60.6311V23.26H55.1311L56.7511 21.6C58.4311 19.86 60.5111 17.68 60.5111 15.24C60.5111 12.76 58.9711 11.32 55.9711 11.32C54.3911 11.32 52.9911 11.82 52.0711 12.36L52.4711 14.18C53.2311 13.72 54.3511 13.26 55.3111 13.26C57.0511 13.26 57.9511 13.9 57.9511 15.56C57.9511 17.28 56.4311 18.98 54.5311 20.98L51.9111 23.74V25.18Z" fill="white"/>
</g>
<defs>
<clipPath id="clip0_96_1274">
<rect width="148" height="148" rx="12" fill="white"/>
</clipPath>
</defs>
</svg>
