<svg width="20" height="20" viewBox="0 0 20 20" fill="none" xmlns="http://www.w3.org/2000/svg">
<g clip-path="url(#clip0_1199_6149)">
<path d="M7.50001 13.58L7.50126 13.5788L4.12626 10.2038C4.01232 10.086 3.94921 9.92815 3.95052 9.76428C3.95183 9.6004 4.01745 9.44359 4.13325 9.32763C4.24905 9.21167 4.40576 9.14583 4.56963 9.14429C4.73351 9.14275 4.89143 9.20564 5.00938 9.3194L8.38438 12.695L15.0138 6.0669C15.0714 6.00721 15.1404 5.9596 15.2166 5.92684C15.2929 5.89408 15.3749 5.87684 15.4579 5.87612C15.5409 5.8754 15.6232 5.89121 15.7 5.92264C15.7768 5.95407 15.8466 6.00047 15.9053 6.05916C15.9639 6.11784 16.0103 6.18762 16.0418 6.26443C16.0732 6.34124 16.089 6.42354 16.0883 6.50653C16.0876 6.58952 16.0703 6.67153 16.0376 6.74778C16.0048 6.82403 15.9572 6.893 15.8975 6.95065L8.82563 14.0219C8.70843 14.1391 8.54949 14.2049 8.38376 14.2049C8.21803 14.2049 8.05909 14.1391 7.94188 14.0219L7.50001 13.58Z" fill="#4060A0"/>
<path d="M3.75 0.625C3.33962 0.625 2.93326 0.705831 2.55411 0.862876C2.17497 1.01992 1.83047 1.25011 1.54029 1.54029C0.95424 2.12634 0.625 2.9212 0.625 3.75V16.25C0.625 17.0788 0.95424 17.8737 1.54029 18.4597C1.83047 18.7499 2.17497 18.9801 2.55411 19.1371C2.93326 19.2942 3.33962 19.375 3.75 19.375H16.25C17.0788 19.375 17.8737 19.0458 18.4597 18.4597C19.0458 17.8737 19.375 17.0788 19.375 16.25V3.75C19.375 3.33962 19.2942 2.93326 19.1371 2.55411C18.9801 2.17497 18.7499 1.83047 18.4597 1.54029C18.1695 1.25011 17.825 1.01992 17.4459 0.862876C17.0667 0.705831 16.6604 0.625 16.25 0.625H3.75ZM1.875 3.75C1.875 3.25272 2.07254 2.77581 2.42417 2.42417C2.77581 2.07254 3.25272 1.875 3.75 1.875H16.25C16.7473 1.875 17.2242 2.07254 17.5758 2.42417C17.9275 2.77581 18.125 3.25272 18.125 3.75V16.25C18.125 16.7473 17.9275 17.2242 17.5758 17.5758C17.2242 17.9275 16.7473 18.125 16.25 18.125H3.75C3.25272 18.125 2.77581 17.9275 2.42417 17.5758C2.07254 17.2242 1.875 16.7473 1.875 16.25V3.75Z" fill="#4060A0"/>
<path d="M7.50125 13.5787L7.72187 13.8L7.94312 13.5787L7.72187 13.3581L7.50125 13.5787ZM7.5 13.58L7.27938 13.3588L7.05813 13.58L7.27875 13.8006L7.5 13.58ZM8.38437 12.695L8.16375 12.9163L8.385 13.1369L8.60563 12.9163L8.385 12.695H8.38437ZM0.9375 3.75C0.9375 3.00408 1.23382 2.28871 1.76126 1.76126C2.28871 1.23382 3.00408 0.9375 3.75 0.9375V0.3125C2.83832 0.3125 1.96398 0.674664 1.31932 1.31932C0.674664 1.96398 0.3125 2.83832 0.3125 3.75H0.9375ZM0.9375 16.25V3.75H0.3125V16.25H0.9375ZM3.75 19.0625C3.00408 19.0625 2.28871 18.7662 1.76126 18.2387C1.23382 17.7113 0.9375 16.9959 0.9375 16.25H0.3125C0.3125 17.1617 0.674664 18.036 1.31932 18.6807C1.96398 19.3253 2.83832 19.6875 3.75 19.6875V19.0625ZM16.25 19.0625H3.75V19.6875H16.25V19.0625ZM19.0625 16.25C19.0625 16.9959 18.7662 17.7113 18.2387 18.2387C17.7113 18.7662 16.9959 19.0625 16.25 19.0625V19.6875C17.1617 19.6875 18.036 19.3253 18.6807 18.6807C19.3253 18.036 19.6875 17.1617 19.6875 16.25H19.0625ZM19.0625 3.75V16.25H19.6875V3.75H19.0625ZM16.25 0.9375C16.9959 0.9375 17.7113 1.23382 18.2387 1.76126C18.7662 2.28871 19.0625 3.00408 19.0625 3.75H19.6875C19.6875 2.83832 19.3253 1.96398 18.6807 1.31932C18.036 0.674664 17.1617 0.3125 16.25 0.3125V0.9375ZM3.75 0.9375H16.25V0.3125H3.75V0.9375ZM3.75 1.5625C3.16984 1.5625 2.61344 1.79297 2.2032 2.2032C1.79297 2.61344 1.5625 3.16984 1.5625 3.75H2.1875C2.1875 3.3356 2.35212 2.93817 2.64515 2.64515C2.93817 2.35212 3.3356 2.1875 3.75 2.1875V1.5625ZM16.25 1.5625H3.75V2.1875H16.25V1.5625ZM18.4375 3.75C18.4375 3.46273 18.3809 3.17828 18.271 2.91288C18.1611 2.64748 17.9999 2.40633 17.7968 2.2032C17.5937 2.00008 17.3525 1.83895 17.0871 1.72901C16.8217 1.61908 16.5373 1.5625 16.25 1.5625V2.1875C16.6644 2.1875 17.0618 2.35212 17.3549 2.64515C17.6479 2.93817 17.8125 3.3356 17.8125 3.75H18.4375ZM18.4375 16.25V3.75H17.8125V16.25H18.4375ZM16.25 18.4375C16.5373 18.4375 16.8217 18.3809 17.0871 18.271C17.3525 18.1611 17.5937 17.9999 17.7968 17.7968C17.9999 17.5937 18.1611 17.3525 18.271 17.0871C18.3809 16.8217 18.4375 16.5373 18.4375 16.25H17.8125C17.8125 16.6644 17.6479 17.0618 17.3549 17.3549C17.0618 17.6479 16.6644 17.8125 16.25 17.8125V18.4375ZM3.75 18.4375H16.25V17.8125H3.75V18.4375ZM1.5625 16.25C1.5625 16.5373 1.61908 16.8217 1.72901 17.0871C1.83895 17.3525 2.00008 17.5937 2.2032 17.7968C2.40633 17.9999 2.64748 18.1611 2.91288 18.271C3.17828 18.3809 3.46273 18.4375 3.75 18.4375V17.8125C3.3356 17.8125 2.93817 17.6479 2.64515 17.3549C2.35212 17.0618 2.1875 16.6644 2.1875 16.25H1.5625ZM1.5625 3.75V16.25H2.1875V3.75H1.5625ZM7.28 13.3575L7.27938 13.3588L7.72062 13.8013L7.72187 13.8L7.28 13.3575ZM3.905 10.4244L7.28 13.7994L7.72187 13.3581L4.34688 9.9825L3.905 10.4244ZM3.905 9.09875C3.72925 9.27456 3.63051 9.51297 3.63051 9.76156C3.63051 10.0102 3.72925 10.2486 3.905 10.4244L4.34688 9.9825C4.28829 9.9239 4.25538 9.84443 4.25538 9.76156C4.25538 9.6787 4.28829 9.59923 4.34688 9.54063L3.905 9.09875ZM5.23 9.09875C5.05422 8.92319 4.81594 8.82458 4.5675 8.82458C4.31906 8.82458 4.08078 8.92319 3.905 9.09875L4.34688 9.54063C4.40548 9.48204 4.48495 9.44913 4.56781 9.44913C4.65068 9.44913 4.73015 9.48204 4.78875 9.54063L5.23063 9.09875H5.23ZM8.60563 12.4738L5.23063 9.09875L4.78875 9.54063L8.16375 12.9163L8.60563 12.4738ZM14.7925 5.84625L8.16375 12.4744L8.60563 12.9163L15.2338 6.2875L14.7919 5.84562L14.7925 5.84625ZM16.1181 5.84625C16.0311 5.75913 15.9277 5.69002 15.8139 5.64287C15.7001 5.59572 15.5782 5.57145 15.455 5.57145C15.3318 5.57145 15.2099 5.59572 15.0961 5.64287C14.9823 5.69002 14.8796 5.75913 14.7925 5.84625L15.2338 6.2875C15.2924 6.22892 15.3718 6.19663 15.4547 6.19663C15.5376 6.19663 15.617 6.22954 15.6756 6.28813L16.1181 5.84625ZM16.1181 7.17125C16.2937 6.99547 16.3923 6.75719 16.3923 6.50875C16.3923 6.26031 16.2937 6.02203 16.1181 5.84625L15.6756 6.28813C15.7342 6.34673 15.7671 6.4262 15.7671 6.50906C15.7671 6.59193 15.7342 6.6714 15.6756 6.73L16.1181 7.17188V7.17125ZM9.04688 14.2438L16.1181 7.17188L15.6756 6.73063L8.605 13.8006L9.04688 14.2425V14.2438ZM7.72125 14.2438C7.89703 14.4193 8.13531 14.5179 8.38375 14.5179C8.63219 14.5179 8.87047 14.4193 9.04625 14.2438L8.605 13.8013C8.5464 13.8598 8.46693 13.8927 8.38406 13.8927C8.3012 13.8927 8.22173 13.8598 8.16313 13.8013L7.72125 14.2438ZM7.27875 13.8013L7.72125 14.2438L8.16313 13.8013L7.72125 13.3594L7.27875 13.8013Z" fill="#4060A0"/>
</g>
<defs>
<clipPath id="clip0_1199_6149">
<rect width="20" height="20" fill="white"/>
</clipPath>
</defs>
</svg>
